<svg version="1.1" id="Layer_1" xmlns="http://www.w3.org/2000/svg" xmlns:xlink="http://www.w3.org/1999/xlink" x="0px" y="0px"
	 width="100%" viewBox="0 0 1080 1080" enable-background="new 0 0 1080 1080" xml:space="preserve">
<path fill="#FFFFFF" opacity="1.000000" stroke="none" 
	d="
M577.000000,1081.000000 
	C384.688812,1081.000000 192.877609,1081.000000 1.033205,1081.000000 
	C1.033205,721.063660 1.033205,361.127350 1.033205,1.095518 
	C360.894745,1.095518 720.789551,1.095518 1080.842163,1.095518 
	C1080.842163,360.999939 1080.842163,720.999939 1080.842163,1081.000000 
	C913.126892,1081.000000 745.313416,1081.000000 577.000000,1081.000000 
M436.213257,61.249531 
	C410.998169,44.965717 383.202881,37.969532 353.381927,37.982067 
	C248.238647,38.026272 143.095352,37.999252 37.952061,37.999245 
	C36.361828,37.999245 34.771595,37.999245 33.344673,37.999245 
	C33.344673,199.506836 33.344673,360.363861 33.344673,521.520447 
	C34.835327,521.520447 35.982147,521.520447 37.128971,521.520447 
	C143.605286,521.519958 250.081680,521.582275 356.557861,521.459900 
	C375.274872,521.438416 393.766052,519.136292 411.558136,512.886292 
	C448.027313,500.075256 475.585754,477.273682 490.579254,440.997864 
	C501.010712,415.759674 501.377106,389.464172 497.050446,362.904388 
	C490.775665,324.385956 470.559784,296.385101 434.331116,280.849426 
	C426.587830,277.528931 418.296021,275.496704 410.301300,272.742096 
	C409.243011,272.377411 408.448853,271.246124 407.532349,270.469879 
	C408.359711,269.781372 409.095245,268.901154 410.036438,268.450287 
	C411.373322,267.809845 412.866852,267.501221 414.284241,267.023468 
	C430.892212,261.425629 446.222839,253.485321 458.395813,240.673386 
	C486.337158,211.265472 491.926361,175.227295 486.281952,137.088760 
	C481.510284,104.847252 463.546021,80.092903 436.213257,61.249531 
M871.229614,1003.270569 
	C879.836365,1013.226807 888.536682,1023.104675 896.985229,1033.193359 
	C899.149475,1035.777832 901.420105,1036.590088 904.671509,1036.582886 
	C946.502380,1036.490356 988.333496,1036.521729 1030.164551,1036.521729 
	C1031.938721,1036.521729 1033.713013,1036.521729 1035.546753,1036.521729 
	C1035.546753,875.041321 1035.546753,714.274048 1035.546753,553.309387 
	C987.956970,553.309387 940.587646,553.309387 892.748047,553.309387 
	C892.748047,632.459229 892.748047,711.299500 892.748047,791.010193 
	C884.246277,781.035583 876.371399,771.800110 868.500427,762.561157 
	C809.950623,693.835388 751.384644,625.123352 692.918762,556.326355 
	C690.722961,553.742554 688.517395,552.931824 685.281311,552.938843 
	C643.450439,553.029663 601.619324,552.998962 559.788269,552.998962 
	C558.028870,552.998962 556.269470,552.998901 554.439575,552.998901 
	C554.439575,714.419922 554.439575,875.175354 554.439575,1036.174683 
	C602.035034,1036.174683 649.407410,1036.174683 697.283569,1036.174683 
	C697.283569,958.158325 697.283569,880.488037 697.283569,802.037903 
	C755.521973,869.394958 813.157104,936.054382 871.229614,1003.270569 
z"/>
<path fill="#0000FF" opacity="1.000000" stroke="none" 
	d="
M436.498474,61.471092 
	C463.546021,80.092903 481.510284,104.847252 486.281952,137.088760 
	C491.926361,175.227295 486.337158,211.265472 458.395813,240.673386 
	C446.222839,253.485321 430.892212,261.425629 414.284241,267.023468 
	C412.866852,267.501221 411.373322,267.809845 410.036438,268.450287 
	C409.095245,268.901154 408.359711,269.781372 407.532349,270.469879 
	C408.448853,271.246124 409.243011,272.377411 410.301300,272.742096 
	C418.296021,275.496704 426.587830,277.528931 434.331116,280.849426 
	C470.559784,296.385101 490.775665,324.385956 497.050446,362.904388 
	C501.377106,389.464172 501.010712,415.759674 490.579254,440.997864 
	C475.585754,477.273682 448.027313,500.075256 411.558136,512.886292 
	C393.766052,519.136292 375.274872,521.438416 356.557861,521.459900 
	C250.081680,521.582275 143.605286,521.519958 37.128971,521.520447 
	C35.982147,521.520447 34.835327,521.520447 33.344673,521.520447 
	C33.344673,360.363861 33.344673,199.506836 33.344673,37.999245 
	C34.771595,37.999245 36.361828,37.999245 37.952061,37.999245 
	C143.095352,37.999252 248.238647,38.026272 353.381927,37.982067 
	C383.202881,37.969532 410.998169,44.965717 436.498474,61.471092 
M334.911865,394.350220 
	C341.619598,385.407562 342.083832,375.049133 342.119049,364.424713 
	C342.187317,343.859711 327.987579,325.469635 303.110138,325.854462 
	C266.657959,326.418335 230.190613,325.999603 193.729721,325.999603 
	C191.967270,325.999603 190.204819,325.999603 188.473495,325.999603 
	C188.473495,354.006470 188.473495,381.377197 188.473495,408.903839 
	C228.405838,408.903839 268.014038,409.067902 307.619263,408.797516 
	C318.597046,408.722595 327.931152,404.217621 334.911865,394.350220 
M239.499786,226.513184 
	C257.162781,226.511810 274.825775,226.503510 292.488770,226.511948 
	C301.717712,226.516357 310.178131,224.448425 317.470184,218.314316 
	C328.931549,208.672943 331.199493,195.862411 331.058319,181.865448 
	C330.849548,161.159698 314.821320,143.465775 292.115143,143.855362 
	C259.298157,144.418427 226.464279,143.999435 193.637604,143.999435 
	C191.884048,143.999435 190.130493,143.999435 188.387756,143.999435 
	C188.387756,171.798080 188.387756,198.889496 188.387756,226.513031 
	C205.248047,226.513031 221.873901,226.513031 239.499786,226.513184 
z"/>
<path fill="#0101FF" opacity="1.000000" stroke="none" 
	d="
M871.010986,1002.992188 
	C813.157104,936.054382 755.521973,869.394958 697.283569,802.037903 
	C697.283569,880.488037 697.283569,958.158325 697.283569,1036.174683 
	C649.407410,1036.174683 602.035034,1036.174683 554.439575,1036.174683 
	C554.439575,875.175354 554.439575,714.419922 554.439575,552.998901 
	C556.269470,552.998901 558.028870,552.998962 559.788269,552.998962 
	C601.619324,552.998962 643.450439,553.029663 685.281311,552.938843 
	C688.517395,552.931824 690.722961,553.742554 692.918762,556.326355 
	C751.384644,625.123352 809.950623,693.835388 868.500427,762.561157 
	C876.371399,771.800110 884.246277,781.035583 892.748047,791.010193 
	C892.748047,711.299500 892.748047,632.459229 892.748047,553.309387 
	C940.587646,553.309387 987.956970,553.309387 1035.546753,553.309387 
	C1035.546753,714.274048 1035.546753,875.041321 1035.546753,1036.521729 
	C1033.713013,1036.521729 1031.938721,1036.521729 1030.164551,1036.521729 
	C988.333496,1036.521729 946.502380,1036.490356 904.671509,1036.582886 
	C901.420105,1036.590088 899.149475,1035.777832 896.985229,1033.193359 
	C888.536682,1023.104675 879.836365,1013.226807 871.010986,1002.992188 
z"/>
<path fill="#FEFEFF" opacity="1.000000" stroke="none" 
	d="
M334.689880,394.637299 
	C327.931152,404.217621 318.597046,408.722595 307.619263,408.797516 
	C268.014038,409.067902 228.405838,408.903839 188.473495,408.903839 
	C188.473495,381.377197 188.473495,354.006470 188.473495,325.999603 
	C190.204819,325.999603 191.967270,325.999603 193.729721,325.999603 
	C230.190613,325.999603 266.657959,326.418335 303.110138,325.854462 
	C327.987579,325.469635 342.187317,343.859711 342.119049,364.424713 
	C342.083832,375.049133 341.619598,385.407562 334.689880,394.637299 
z"/>
<path fill="#FEFEFF" opacity="1.000000" stroke="none" 
	d="
M238.999771,226.513107 
	C221.873901,226.513031 205.248047,226.513031 188.387756,226.513031 
	C188.387756,198.889496 188.387756,171.798080 188.387756,143.999435 
	C190.130493,143.999435 191.884048,143.999435 193.637604,143.999435 
	C226.464279,143.999435 259.298157,144.418427 292.115143,143.855362 
	C314.821320,143.465775 330.849548,161.159698 331.058319,181.865448 
	C331.199493,195.862411 328.931549,208.672943 317.470184,218.314316 
	C310.178131,224.448425 301.717712,226.516357 292.488770,226.511948 
	C274.825775,226.503510 257.162781,226.511810 238.999771,226.513107 
z"/>
</svg>